<svg viewBox="0 0 280 546" fill="none" xmlns="http://www.w3.org/2000/svg">
          <g filter="url(#filter0_d_0_1)">
          <rect y="269" width="264" height="263" fill="white"/>
          </g>
          <path d="M134.058 290H149.968V306.856H173.835V290H201.275V334.248L182.713 357.301C186.709 362.755 186.786 368.498 182.943 374.53C182.328 375.604 182.021 376.595 182.021 377.504C182.021 378.578 182.328 379.611 182.943 380.603C184.557 383.164 185.326 386.8 185.249 391.51C185.249 396.137 184.442 399.773 182.828 402.417C182.29 403.243 182.021 404.111 182.021 405.02C182.021 406.177 182.367 407.251 183.058 408.242C186.671 414.109 186.594 419.893 182.828 425.594C182.29 426.586 182.021 427.536 182.021 428.445C182.021 429.354 182.29 430.304 182.828 431.296C184.519 434.023 185.364 437.823 185.364 442.699C185.364 447.491 184.442 451.044 182.597 453.358L201.275 463.397V474.056H209V510H59V474.18H66.8401V463.521L85.4027 453.358C83.558 451.044 82.6357 447.491 82.6357 442.699C82.6357 437.906 83.4812 434.146 85.1722 431.42C85.7871 430.511 86.0945 429.561 86.0945 428.569C86.0945 427.743 85.7871 426.793 85.1722 425.718C81.4058 419.934 81.3674 414.15 85.0568 408.366C85.7486 407.044 86.0945 405.97 86.0945 405.144C86.0945 404.317 85.8255 403.408 85.2875 402.417C83.5964 399.773 82.7125 396.137 82.6356 391.51C82.6356 386.8 83.4427 383.164 85.0568 380.603C85.7486 379.611 86.0945 378.578 86.0945 377.504C86.0945 376.595 85.787 375.645 85.1721 374.653C81.2521 368.622 81.3289 362.838 85.4027 357.301L66.8401 334.372V290.124H94.2805V306.856L118.031 306.98V290.124L134.058 290Z" fill="white"/>
          <path d="M75.0261 321.482V332.265C84.8647 331.769 94.6649 331.273 104.427 330.777C114.265 330.199 124.142 329.91 134.058 329.91C143.742 329.91 153.504 330.24 163.343 330.901C173.258 331.562 183.174 332.017 193.089 332.265C193.089 329.538 193.089 327.762 193.089 326.935C193.089 326.026 193.089 324.208 193.089 321.482H75.0261Z" fill="white"/>
          <path d="M79.9839 467.487C76.6787 467.818 75.0261 469.594 75.0261 472.817C75.0261 476.37 76.6787 478.146 79.9839 478.146L134.058 476.163L188.131 478.146C191.437 478.146 193.089 476.37 193.089 472.817C193.089 469.594 191.437 467.818 188.131 467.487C179.138 466.909 170.107 466.413 161.037 466C152.044 465.504 143.051 465.256 134.058 465.256C125.065 465.256 116.033 465.504 106.963 466C97.97 466.413 88.9769 466.909 79.9839 467.487Z" fill="white"/>
          <path d="M139.938 433.899C142.167 431.998 145.433 431.048 149.738 431.048C154.119 431.048 157.463 431.998 159.769 433.899C162.075 435.882 163.227 438.856 163.227 442.823C163.304 446.789 162.151 449.392 159.769 450.631C157.309 452.036 153.965 452.738 149.738 452.738C145.51 452.738 142.244 452.036 139.938 450.631C137.478 449.392 136.287 446.789 136.364 442.823C136.44 438.856 137.632 435.882 139.938 433.899Z" fill="white"/>
          <path d="M108.347 433.899C110.652 431.998 113.958 431.048 118.262 431.048C122.566 431.048 125.872 431.998 128.177 433.899C130.483 435.882 131.521 438.856 131.29 442.823C131.137 446.789 130.099 449.392 128.177 450.631C126.179 452.036 122.797 452.697 118.031 452.614C113.343 452.449 110.114 451.788 108.347 450.631C106.502 449.557 105.464 446.995 105.234 442.946C105.003 438.898 106.041 435.882 108.347 433.899V433.899Z" fill="white"/>
          <path d="M134.058 344.535C126.756 344.535 118.301 345.072 108.693 346.146C99.0846 347.138 93.0507 348.047 90.5911 348.873C88.0546 349.865 86.9016 351.435 87.1322 353.583C87.3628 355.731 88.5158 357.136 90.5911 357.797C92.6664 358.541 96.7787 358.458 102.928 357.549C109.077 356.64 112.882 356.723 114.342 357.797C115.726 358.954 116.417 361.681 116.417 365.977C116.417 370.192 115.726 373.084 114.342 374.653C112.882 376.223 108.923 376.43 102.467 375.273C96.0869 374.116 92.1284 373.91 90.5911 374.653C89.0538 375.397 88.4389 376.761 88.7464 378.744C89.0538 380.644 89.6687 382.049 90.5911 382.958C91.5135 383.949 92.8586 383.743 94.6265 382.338C96.4712 380.933 97.8548 381.14 98.7771 382.958C99.6995 384.941 100.161 387.792 100.161 391.51C100.161 395.228 99.6995 397.996 98.7771 399.814C97.8548 401.715 96.4712 401.962 94.6265 400.558C92.8586 399.07 91.5135 398.823 90.5911 399.814C89.5919 400.888 89.0538 402.5 88.977 404.648C88.977 406.714 89.515 408.036 90.5911 408.614C91.5903 409.358 95.4335 409.193 102.121 408.118C108.808 406.962 112.882 407.127 114.342 408.614C115.726 410.184 116.417 412.952 116.417 416.918C116.417 420.885 115.726 423.735 114.342 425.47C112.882 427.288 108.769 427.577 102.005 426.338C95.3182 425.016 91.5135 424.727 90.5911 425.47C87.5934 428.115 87.5934 430.924 90.5911 433.899C91.5135 434.89 92.8586 434.684 94.6265 433.279C96.4712 431.874 97.8548 432.081 98.7771 433.899C99.6995 435.799 100.161 438.608 100.161 442.327C100.161 446.045 99.6995 448.813 98.7771 450.631C97.8548 452.614 96.4712 452.903 94.6265 451.499C92.8586 450.011 91.5135 449.722 90.5911 450.631C89.6687 451.623 88.9385 453.11 88.4005 455.093C87.8625 456.993 88.5926 458.316 90.5911 459.059C92.1284 459.72 97.2014 459.596 105.81 458.687C114.419 457.779 123.835 457.324 134.058 457.324C144.204 457.324 153.696 457.696 162.536 458.44C171.375 459.101 176.371 459.307 177.524 459.059C179.138 458.811 179.753 457.613 179.369 455.465C179.062 453.234 178.447 451.623 177.524 450.631C176.525 449.722 175.103 450.011 173.258 451.499C171.49 452.903 170.184 452.614 169.338 450.631C168.416 448.813 167.955 446.045 167.955 442.327C167.955 438.609 168.416 435.799 169.338 433.899C170.184 432.081 171.529 431.874 173.374 433.279C175.218 434.684 176.602 434.89 177.524 433.899C180.368 430.841 180.368 428.032 177.524 425.471C176.602 424.727 172.643 424.933 165.649 426.09C158.654 427.247 154.657 427.04 153.658 425.471C152.659 423.983 152.082 421.38 151.929 417.662C151.852 413.861 152.428 410.845 153.658 408.614C154.888 406.383 158.885 405.97 165.649 407.375C172.49 408.779 176.448 409.193 177.524 408.614C178.447 408.118 178.908 406.796 178.908 404.648C178.908 402.5 178.447 400.888 177.524 399.814C176.525 398.823 175.103 399.071 173.258 400.558C171.49 401.963 170.184 401.715 169.338 399.814C168.416 397.996 167.955 395.228 167.955 391.51C167.955 387.792 168.416 384.941 169.338 382.958C170.184 381.14 171.49 380.933 173.258 382.338C175.103 383.743 176.525 383.949 177.524 382.958C178.447 382.049 178.946 380.644 179.023 378.744C179.177 376.761 178.677 375.397 177.524 374.654C176.218 373.91 172.221 374.117 165.533 375.273C158.846 376.43 154.888 376.224 153.658 374.654C152.428 373.084 151.813 370.274 151.813 366.225C151.813 362.177 152.428 359.367 153.658 357.797C154.888 356.31 158.654 356.227 164.957 357.549C171.26 358.871 175.449 358.954 177.524 357.797C179.523 356.723 180.599 355.236 180.753 353.335C180.983 351.352 179.907 349.865 177.524 348.873C174.988 348.047 168.877 347.138 159.192 346.147C149.584 345.072 141.206 344.535 134.058 344.535V344.535Z" fill="white"/>
          <path d="M124.488 357.797C126.64 355.897 129.792 354.946 133.942 354.946C138.17 354.946 141.398 355.897 143.627 357.797C145.856 359.78 146.971 362.59 146.971 366.225C146.971 369.861 145.856 372.67 143.627 374.653C141.398 376.637 138.17 377.628 133.942 377.628C129.792 377.628 126.64 376.637 124.488 374.653C122.259 372.67 121.144 369.861 121.144 366.225C121.144 362.59 122.259 359.78 124.488 357.797Z" fill="white"/>
          <path d="M139.938 382.958C142.167 381.057 145.434 380.107 149.738 380.107C154.119 380.107 157.463 381.057 159.769 382.958C162.075 384.941 163.228 387.792 163.228 391.51C163.228 395.146 162.075 397.914 159.769 399.814C157.463 401.797 154.119 402.789 149.738 402.789C145.434 402.789 142.167 401.797 139.938 399.814C137.632 397.914 136.479 395.146 136.479 391.51C136.479 387.792 137.632 384.941 139.938 382.958Z" fill="white"/>
          <path d="M108.347 382.958C110.653 381.057 113.958 380.107 118.262 380.107C122.566 380.107 125.872 381.057 128.178 382.958C130.483 384.941 131.636 387.792 131.636 391.51C131.636 395.146 130.483 397.914 128.178 399.814C125.872 401.797 122.566 402.789 118.262 402.789C113.958 402.789 110.653 401.797 108.347 399.814C106.041 397.914 104.888 395.146 104.888 391.51C104.888 387.792 106.041 384.941 108.347 382.958Z" fill="white"/>
          <path d="M124.488 408.614C126.64 406.714 129.792 405.763 133.942 405.763C138.17 405.763 141.398 406.714 143.627 408.614C145.856 410.597 146.971 413.448 146.971 417.166C146.971 420.802 145.856 423.57 143.627 425.47C141.398 427.454 138.17 428.445 133.942 428.445C129.792 428.445 126.64 427.454 124.488 425.47C122.259 423.57 121.144 420.802 121.144 417.166C121.144 413.448 122.259 410.597 124.488 408.614Z" fill="white"/>
          <path d="M67.186 486.575V495.003H201.045V486.575H67.186Z" fill="white"/>
          <path d="M134.058 290H149.968V306.856H173.835V290H201.275V334.248L182.713 357.301C186.709 362.755 186.786 368.498 182.943 374.53C182.328 375.604 182.021 376.595 182.021 377.504C182.021 378.578 182.328 379.611 182.943 380.603C184.557 383.164 185.326 386.8 185.249 391.51C185.249 396.137 184.442 399.773 182.828 402.417C182.29 403.243 182.021 404.111 182.021 405.02C182.021 406.177 182.367 407.251 183.058 408.242C186.671 414.109 186.594 419.893 182.828 425.594C182.29 426.586 182.021 427.536 182.021 428.445C182.021 429.354 182.29 430.304 182.828 431.296C184.519 434.023 185.364 437.823 185.364 442.699C185.364 447.491 184.442 451.044 182.597 453.358L201.275 463.397V474.056H209V510H59V474.18H66.8401V463.521L85.4027 453.358C83.558 451.044 82.6357 447.491 82.6357 442.699C82.6357 437.906 83.4812 434.146 85.1722 431.42C85.7871 430.511 86.0945 429.561 86.0945 428.569C86.0945 427.743 85.7871 426.793 85.1722 425.718C81.4058 419.934 81.3674 414.15 85.0568 408.366C85.7486 407.044 86.0945 405.97 86.0945 405.144C86.0945 404.317 85.8255 403.408 85.2875 402.417C83.5964 399.773 82.7125 396.137 82.6356 391.51C82.6356 386.8 83.4427 383.164 85.0568 380.603C85.7486 379.611 86.0945 378.578 86.0945 377.504C86.0945 376.595 85.787 375.645 85.1721 374.653C81.2521 368.622 81.3289 362.838 85.4027 357.301L66.8401 334.372V290.124H94.2805V306.856L118.031 306.98V290.124L134.058 290ZM75.0261 321.482V332.265C84.8647 331.769 94.6648 331.273 104.427 330.777C114.265 330.199 124.142 329.91 134.058 329.91C143.742 329.91 153.504 330.24 163.343 330.901C173.258 331.562 183.174 332.017 193.089 332.265C193.089 329.538 193.089 327.762 193.089 326.935C193.089 326.026 193.089 324.208 193.089 321.482H75.0261ZM79.9838 467.487C76.6787 467.818 75.0261 469.594 75.0261 472.817C75.0261 476.37 76.6787 478.146 79.9838 478.146L134.058 476.163L188.131 478.146C191.437 478.146 193.089 476.37 193.089 472.817C193.089 469.594 191.437 467.818 188.131 467.487C179.138 466.909 170.107 466.413 161.037 466C152.044 465.504 143.051 465.256 134.058 465.256C125.065 465.256 116.033 465.504 106.963 466C97.97 466.413 88.9769 466.909 79.9838 467.487V467.487ZM139.938 433.899C142.167 431.998 145.434 431.048 149.738 431.048C154.119 431.048 157.463 431.998 159.769 433.899C162.075 435.882 163.227 438.856 163.227 442.823C163.304 446.789 162.151 449.392 159.769 450.631C157.309 452.036 153.965 452.738 149.738 452.738C145.51 452.738 142.244 452.036 139.938 450.631C137.478 449.392 136.287 446.789 136.364 442.823C136.44 438.856 137.632 435.882 139.938 433.899ZM108.347 433.899C110.653 431.998 113.958 431.048 118.262 431.048C122.566 431.048 125.872 431.998 128.178 433.899C130.483 435.882 131.521 438.856 131.291 442.823C131.137 446.789 130.099 449.392 128.178 450.631C126.179 452.036 122.797 452.697 118.032 452.614C113.343 452.449 110.115 451.788 108.347 450.631C106.502 449.557 105.464 446.995 105.234 442.946C105.003 438.898 106.041 435.882 108.347 433.899V433.899ZM134.058 344.535C126.756 344.535 118.301 345.072 108.693 346.146C99.0845 347.138 93.0507 348.047 90.5911 348.873C88.0545 349.865 86.9016 351.435 87.1322 353.583C87.3628 355.731 88.5157 357.136 90.5911 357.797C92.6664 358.541 96.7786 358.458 102.928 357.549C109.077 356.64 112.882 356.723 114.342 357.797C115.726 358.954 116.417 361.681 116.417 365.977C116.417 370.192 115.726 373.084 114.342 374.653C112.882 376.223 108.923 376.43 102.467 375.273C96.0868 374.116 92.1283 373.91 90.5911 374.653C89.0538 375.397 88.4389 376.761 88.7463 378.744C89.0538 380.644 89.6687 382.049 90.5911 382.958C91.5134 383.949 92.8585 383.743 94.6264 382.338C96.4712 380.933 97.8547 381.14 98.7771 382.958C99.6995 384.941 100.161 387.792 100.161 391.51C100.161 395.228 99.6995 397.996 98.7771 399.814C97.8547 401.715 96.4712 401.962 94.6264 400.558C92.8585 399.07 91.5134 398.823 90.5911 399.814C89.5918 400.888 89.0538 402.5 88.9769 404.648C88.9769 406.714 89.515 408.036 90.5911 408.614C91.5903 409.358 95.4335 409.193 102.121 408.118C108.808 406.962 112.882 407.127 114.342 408.614C115.726 410.184 116.417 412.952 116.417 416.918C116.417 420.885 115.726 423.735 114.342 425.47C112.882 427.288 108.769 427.577 102.005 426.338C95.3182 425.016 91.5134 424.727 90.5911 425.47C87.5934 428.115 87.5934 430.924 90.5911 433.899C91.5134 434.89 92.8585 434.684 94.6264 433.279C96.4712 431.874 97.8547 432.081 98.7771 433.899C99.6995 435.799 100.161 438.608 100.161 442.327C100.161 446.045 99.6995 448.813 98.7771 450.631C97.8547 452.614 96.4712 452.903 94.6264 451.499C92.8585 450.011 91.5134 449.722 90.5911 450.631C89.6687 451.623 88.9385 453.11 88.4005 455.093C87.8624 456.993 88.5926 458.316 90.5911 459.059C92.1283 459.72 97.2014 459.596 105.81 458.687C114.419 457.779 123.835 457.324 134.058 457.324C144.204 457.324 153.696 457.696 162.536 458.44C171.375 459.101 176.371 459.307 177.524 459.059C179.138 458.811 179.753 457.613 179.369 455.465C179.062 453.234 178.447 451.623 177.524 450.631C176.525 449.722 175.103 450.011 173.258 451.499C171.49 452.903 170.184 452.614 169.338 450.631C168.416 448.813 167.955 446.045 167.955 442.327C167.955 438.609 168.416 435.799 169.338 433.899C170.184 432.081 171.529 431.874 173.374 433.279C175.218 434.684 176.602 434.89 177.524 433.899C180.368 430.841 180.368 428.032 177.524 425.471C176.602 424.727 172.643 424.933 165.649 426.09C158.654 427.247 154.657 427.04 153.658 425.471C152.659 423.983 152.082 421.38 151.929 417.662C151.852 413.861 152.428 410.845 153.658 408.614C154.888 406.383 158.885 405.97 165.649 407.375C172.49 408.779 176.448 409.193 177.524 408.614C178.447 408.118 178.908 406.796 178.908 404.648C178.908 402.5 178.447 400.888 177.524 399.814C176.525 398.823 175.103 399.071 173.258 400.558C171.49 401.963 170.184 401.715 169.338 399.814C168.416 397.996 167.955 395.228 167.955 391.51C167.955 387.792 168.416 384.941 169.338 382.958C170.184 381.14 171.49 380.933 173.258 382.338C175.103 383.743 176.525 383.949 177.524 382.958C178.447 382.049 178.946 380.644 179.023 378.744C179.177 376.761 178.677 375.397 177.524 374.654C176.218 373.91 172.221 374.117 165.533 375.273C158.846 376.43 154.888 376.224 153.658 374.654C152.428 373.084 151.813 370.274 151.813 366.225C151.813 362.177 152.428 359.367 153.658 357.797C154.888 356.31 158.654 356.227 164.957 357.549C171.26 358.871 175.449 358.954 177.524 357.797C179.523 356.723 180.599 355.236 180.752 353.335C180.983 351.352 179.907 349.865 177.524 348.873C174.988 348.047 168.877 347.138 159.192 346.147C149.584 345.072 141.206 344.535 134.058 344.535V344.535ZM124.488 357.797C126.64 355.897 129.792 354.946 133.942 354.946C138.17 354.946 141.398 355.897 143.627 357.797C145.856 359.78 146.971 362.59 146.971 366.225C146.971 369.861 145.856 372.67 143.627 374.653C141.398 376.637 138.17 377.628 133.942 377.628C129.792 377.628 126.64 376.637 124.488 374.653C122.259 372.67 121.144 369.861 121.144 366.225C121.144 362.59 122.259 359.78 124.488 357.797ZM139.938 382.958C142.167 381.057 145.434 380.107 149.738 380.107C154.119 380.107 157.463 381.057 159.769 382.958C162.075 384.941 163.227 387.792 163.227 391.51C163.227 395.146 162.075 397.914 159.769 399.814C157.463 401.797 154.119 402.789 149.738 402.789C145.434 402.789 142.167 401.797 139.938 399.814C137.632 397.914 136.479 395.146 136.479 391.51C136.479 387.792 137.632 384.941 139.938 382.958ZM108.347 382.958C110.653 381.057 113.958 380.107 118.262 380.107C122.566 380.107 125.872 381.057 128.178 382.958C130.483 384.941 131.636 387.792 131.636 391.51C131.636 395.146 130.483 397.914 128.178 399.814C125.872 401.797 122.566 402.789 118.262 402.789C113.958 402.789 110.653 401.797 108.347 399.814C106.041 397.914 104.888 395.146 104.888 391.51C104.888 387.792 106.041 384.941 108.347 382.958ZM124.488 408.614C126.64 406.714 129.792 405.763 133.942 405.763C138.17 405.763 141.398 406.714 143.627 408.614C145.856 410.597 146.971 413.448 146.971 417.166C146.971 420.802 145.856 423.57 143.627 425.47C141.398 427.454 138.17 428.445 133.942 428.445C129.792 428.445 126.64 427.454 124.488 425.47C122.259 423.57 121.144 420.802 121.144 417.166C121.144 413.448 122.259 410.597 124.488 408.614ZM67.186 486.575V495.003H201.045V486.575H67.186Z" fill="black"/>
          <g clip-path="url(#clip0_0_1)" filter="">
          <g clip-path="url(#clip1_0_1)">
          <path fill-rule="evenodd" clip-rule="evenodd" d="M221.878 170.679C208.141 178.378 192.315 176.944 188.514 155.132C182.685 121.885 247.818 81.6494 252.431 50.8842C253.564 43.1902 252.645 37.2206 249.581 37.9344C247.368 38.4979 249.761 41.7922 245.802 48.1511C222.497 85.6188 173.846 94.1354 139.81 119.349C117.499 135.918 52.4085 186.167 83.7247 267.132C85.1934 270.985 89.69 283.942 91.8676 283.558C94.4226 283.107 93.0029 275.182 91.2328 265.585C81.875 215.729 132.509 192.42 144.012 156.736C145.398 152.49 148 146.383 149.288 148.77C149.918 149.947 149.977 151.794 149.889 155.39C149.216 183.156 127.069 204.812 137.586 222.728C151.22 245.965 174.633 222.723 180.004 205.276C181.428 200.492 182.151 197.466 183.716 197.772C184.912 197.995 185.758 203.048 185.863 207.737C186.585 237.363 183.47 254.623 167.425 274.385C162.283 280.717 152.946 283.491 154.909 287.307C155.408 288.309 159.507 287.474 162.718 286.524C212.545 274.022 243.076 200.25 246.604 154.947C247.256 151.711 247.095 148.779 245.677 147.926C243.916 146.887 242.235 150.28 240.365 152.914C235.602 159.563 228.73 166.857 221.878 170.679Z" fill="url(#paint0_linear_0_1)"/>
          </g>
          </g>
          <defs>
          <filter id="filter0_d_0_1" x="0" y="269" width="278" height="277" filterUnits="userSpaceOnUse" color-interpolation-filters="sRGB">
          <feFlood flood-opacity="0" result="BackgroundImageFix"/>
          <feColorMatrix in="SourceAlpha" type="matrix" values="0 0 0 0 0 0 0 0 0 0 0 0 0 0 0 0 0 0 127 0" result="hardAlpha"/>
          <feOffset dx="10" dy="10"/>
          <feGaussianBlur stdDeviation="2"/>
          <feComposite in2="hardAlpha" operator="out"/>
          <feColorMatrix type="matrix" values="0 0 0 0 0 0 0 0 0 0 0 0 0 0 0 0 0 0 0.25 0"/>
          <feBlend mode="normal" in2="BackgroundImageFix" result="effect1_dropShadow_0_1"/>
          <feBlend mode="normal" in="SourceGraphic" in2="effect1_dropShadow_0_1" result="shape"/>
          </filter>
          <filter id="filter1_b_0_1" x="-55" y="-100" width="611.021" height="604.532" filterUnits="userSpaceOnUse" color-interpolation-filters="sRGB">
          <feFlood flood-opacity="0" result="BackgroundImageFix"/>
          <feGaussianBlur in="BackgroundImage" stdDeviation="50"/>
          <feComposite in2="SourceAlpha" operator="in" result="effect1_backgroundBlur_0_1"/>
          <feBlend mode="normal" in="SourceGraphic" in2="effect1_backgroundBlur_0_1" result="shape"/>
          </filter>
          <linearGradient id="paint0_linear_0_1" x1="47.0838" y1="73.6364" x2="87.3346" y2="301.91" gradientUnits="userSpaceOnUse">
          <stop stop-color="#FFA500"/>
          <stop offset="0.9" stop-color="#ADD8E6"/>
          </linearGradient>
          <clipPath id="clip0_0_1">
          <rect width="356" height="348" fill="white" transform="translate(45 61.8188) rotate(-10)"/>
          </clipPath>
          <clipPath id="clip1_0_1">
          <rect width="339" height="336" fill="white" transform="translate(47.0838 73.6364) rotate(-10)"/>
          </clipPath>
          </defs>
        </svg>